<svg width="22" height="21" viewBox="0 0 22 21" fill="none" xmlns="http://www.w3.org/2000/svg">
<path d="M20 11.742V18.5H21V20.5H1V18.5H2V11.742C1.38437 11.3311 0.879713 10.7746 0.53082 10.1218C0.181927 9.46902 -0.000407734 8.7402 6.84612e-07 8.00003C6.84612e-07 7.17303 0.224001 6.37603 0.633001 5.69703L3.345 1.00003C3.43277 0.848015 3.559 0.72178 3.71101 0.634012C3.86303 0.546243 4.03547 0.500035 4.211 0.500031H17.79C17.9655 0.500035 18.138 0.546243 18.29 0.634012C18.442 0.72178 18.5682 0.848015 18.656 1.00003L21.358 5.68203C21.9546 6.6729 22.1463 7.85556 21.8934 8.98417C21.6405 10.1128 20.9624 11.1005 20 11.742ZM18 12.472C17.3124 12.5492 16.6163 12.4666 15.9659 12.2307C15.3155 11.9948 14.7283 11.612 14.25 11.112C13.8302 11.5511 13.3258 11.9006 12.7672 12.1393C12.2086 12.378 11.6075 12.5011 11 12.501C10.3927 12.5013 9.7916 12.3786 9.23303 12.1402C8.67445 11.9018 8.16996 11.5527 7.75 11.114C7.27163 11.6138 6.68437 11.9964 6.03395 12.2321C5.38353 12.4679 4.68749 12.5503 4 12.473V18.5H18V12.473V12.472ZM4.789 2.50003L2.356 6.71303C2.11958 7.29718 2.11248 7.94906 2.33613 8.53821C2.55978 9.12736 2.99768 9.61032 3.56218 9.89042C4.12668 10.1705 4.77614 10.2271 5.38058 10.0488C5.98502 9.87059 6.49984 9.47063 6.822 8.92903C7.157 8.09203 8.342 8.09203 8.678 8.92903C8.8633 9.39345 9.1836 9.79163 9.59753 10.0721C10.0115 10.3526 10.5 10.5026 11 10.5026C11.5 10.5026 11.9885 10.3526 12.4025 10.0721C12.8164 9.79163 13.1367 9.39345 13.322 8.92903C13.657 8.09203 14.842 8.09203 15.178 8.92903C15.3078 9.24848 15.5022 9.53763 15.7491 9.77831C15.996 10.019 16.2901 10.206 16.6127 10.3276C16.9354 10.4491 17.2797 10.5026 17.6241 10.4847C17.9684 10.4668 18.3053 10.3779 18.6136 10.2235C18.9219 10.0691 19.1949 9.85256 19.4155 9.58756C19.6361 9.32256 19.7995 9.0148 19.8955 8.68361C19.9914 8.35241 20.0178 8.00496 19.973 7.66308C19.9281 7.32121 19.8131 6.9923 19.635 6.69703L17.21 2.50003H4.79H4.789Z" fill="black"/>
</svg>
