<svg width="32" height="26" viewBox="0 0 32 26" fill="none" xmlns="http://www.w3.org/2000/svg">
<path d="M7.8125 11.572H13.4121V25.0581H0V11.572C0.308734 8.81608 1.54487 6.24677 3.50586 4.28589C6.65586 1.41189 12.6074 0.941895 12.6074 0.941895V6.26611C11.3626 6.58612 10.2204 7.22017 9.29102 8.10791C8.50518 9.11422 7.9952 10.3084 7.8125 11.572Z" fill="#0CAF60"/>
<path d="M25.8125 11.572H31.4121V25.0581H18V11.572C18.3087 8.81608 19.5449 6.24677 21.5059 4.28589C24.6559 1.41189 30.6074 0.941895 30.6074 0.941895V6.26611C29.3626 6.58612 28.2204 7.22017 27.291 8.10791C26.5052 9.11422 25.9952 10.3084 25.8125 11.572Z" fill="#0CAF60"/>
</svg>
