<svg width="24" height="24" viewBox="0 0 24 24" fill="none" xmlns="http://www.w3.org/2000/svg">
<path fill-rule="evenodd" clip-rule="evenodd" d="M12 16C14.2091 16 16 14.2091 16 12C16 9.79086 14.2091 8 12 8C9.79086 8 8 9.79086 8 12C8 14.2091 9.79086 16 12 16ZM18 12C18 15.3137 15.3137 18 12 18C8.68629 18 6 15.3137 6 12C6 8.68629 8.68629 6 12 6C15.3137 6 18 8.68629 18 12Z" fill="#6F767E"/>
<path fill-rule="evenodd" clip-rule="evenodd" d="M11.9951 2C12.5474 2 12.9951 2.44772 12.9951 3V4C12.9951 4.55228 12.5474 5 11.9951 5C11.4428 5 10.9951 4.55228 10.9951 4V3C10.9951 2.44772 11.4428 2 11.9951 2Z" fill="#6F767E"/>
<path fill-rule="evenodd" clip-rule="evenodd" d="M11.9951 18.9995C12.5474 18.9995 12.9951 19.4472 12.9951 19.9995V20.9963C12.9951 21.5486 12.5474 21.9963 11.9951 21.9963C11.4428 21.9963 10.9951 21.5486 10.9951 20.9963V19.9995C10.9951 19.4472 11.4428 18.9995 11.9951 18.9995Z" fill="#6F767E"/>
<path fill-rule="evenodd" clip-rule="evenodd" d="M4.92537 4.92839C5.31589 4.53787 5.94906 4.53787 6.33958 4.92839L7.20405 5.79286C7.59458 6.18339 7.59458 6.81655 7.20405 7.20708C6.81353 7.5976 6.18036 7.5976 5.78984 7.20708L4.92537 6.3426C4.53484 5.95208 4.53484 5.31892 4.92537 4.92839Z" fill="#6F767E"/>
<path fill-rule="evenodd" clip-rule="evenodd" d="M16.7931 16.796C17.1836 16.4055 17.8168 16.4055 18.2073 16.7961L19.0651 17.6539C19.4556 18.0444 19.4556 18.6776 19.0651 19.0681C18.6745 19.4586 18.0414 19.4586 17.6509 19.0681L16.793 18.2103C16.4025 17.8197 16.4025 17.1866 16.7931 16.796Z" fill="#6F767E"/>
<path fill-rule="evenodd" clip-rule="evenodd" d="M1.99707 11.9983C1.99707 11.446 2.44479 10.9983 2.99707 10.9983H3.99707C4.54936 10.9983 4.99707 11.446 4.99707 11.9983C4.99707 12.5506 4.54936 12.9983 3.99707 12.9983H2.99707C2.44479 12.9983 1.99707 12.5506 1.99707 11.9983Z" fill="#6F767E"/>
<path fill-rule="evenodd" clip-rule="evenodd" d="M18.9966 11.9983C18.9966 11.446 19.4443 10.9983 19.9966 10.9983H20.9934C21.5456 10.9983 21.9934 11.446 21.9934 11.9983C21.9934 12.5506 21.5456 12.9983 20.9934 12.9983H19.9966C19.4443 12.9983 18.9966 12.5506 18.9966 11.9983Z" fill="#6F767E"/>
<path fill-rule="evenodd" clip-rule="evenodd" d="M4.92522 19.068C4.53469 18.6775 4.53469 18.0444 4.92522 17.6538L5.78615 16.7929C6.17667 16.4024 6.80984 16.4024 7.20036 16.7929C7.59089 17.1834 7.59089 17.8166 7.20036 18.2071L6.33943 19.068C5.94891 19.4586 5.31574 19.4586 4.92522 19.068Z" fill="#6F767E"/>
<path fill-rule="evenodd" clip-rule="evenodd" d="M16.786 7.20717C16.3955 6.81664 16.3955 6.18348 16.7861 5.79296L17.6506 4.92846C18.0411 4.53795 18.6743 4.53796 19.0648 4.92849C19.4553 5.31902 19.4553 5.95218 19.0648 6.3427L18.2002 7.2072C17.8097 7.59771 17.1765 7.5977 16.786 7.20717Z" fill="#6F767E"/>
</svg>
